<svg id="Layer_1" data-name="Layer 1" xmlns="http://www.w3.org/2000/svg" viewBox="0 0 687.1 420.29"><defs><style>.cls-1{fill:#010101;}.cls-2{fill:#231f20;}</style></defs><title>fraud</title><path class="cls-1" d="M186.46,135.22,152,100.81a40.34,40.34,0,1,0-6.48,6.4L180,141.63a4.52,4.52,0,0,0,6.36,0l0,0a4.46,4.46,0,0,0,1.34-3.19A4.34,4.34,0,0,0,186.46,135.22Zm-66.13-28.16A31.46,31.46,0,1,1,151.79,75.6,31.46,31.46,0,0,1,120.34,107.06Z" transform="translate(-80.39 -35.49)"/><path class="cls-1" d="M137.52,62.38c.23-1.55-1.91-1.68-1.91-1.68L132,60.35a13.72,13.72,0,0,1-7.35-3.19A23.54,23.54,0,0,1,122,54.83a1.83,1.83,0,0,0-1.26-.63h-1s-.08,0-.13,0a1.83,1.83,0,0,0-1.26.63,25.52,25.52,0,0,1-2.67,2.33,13.72,13.72,0,0,1-7.35,3.19l-3.63.34s-2.14.13-1.91,1.68-2.2,23.17,9.78,31A29.21,29.21,0,0,0,119.22,97a1.17,1.17,0,0,0,.78.23,2.65,2.65,0,0,0,1.07-.23,38.88,38.88,0,0,0,6.69-3.63C139.73,85.53,137.29,63.93,137.52,62.38Z" transform="translate(-80.39 -35.49)"/><path class="cls-1" d="M579.77,137.91a4.64,4.64,0,0,0,4.64,4.64h.17a4.64,4.64,0,0,0,4.64-4.64V108.66h-9.44Z" transform="translate(-80.39 -35.49)"/><path class="cls-1" d="M535.9,73.72h67.18c4.81,0,9.67.19,14.48,0a2.82,2.82,0,0,0,1.68-.87l4.23-3.42,9.83-7.94L634,61a1.24,1.24,0,0,0,0-1.75L626.19,53c-2.62-2.11-5.17-4.41-7.91-6.37-1-.69-2.72-.37-3.85-.37H589.21V40.53a4.64,4.64,0,0,0-4.64-4.64h-.17a4.64,4.64,0,0,0-4.64,4.64v5.71H551c-4.95,0-9.92-.16-14.87,0h-.22a1.24,1.24,0,0,0-1.24,1.24v25A1.26,1.26,0,0,0,535.9,73.72Zm15-16.48a2.67,2.67,0,0,1,2.33,1.12l2.33,2.33,4.54-4.54c.76-.76,1.5-1.56,2.29-2.29a2.18,2.18,0,0,1,3.75,1.4c0,1.13-.93,1.84-1.65,2.57l-3.26,3.26L558,64.31c-.81.81-1.61,1.8-2.92,1.5-1.16-.26-2.17-1.68-3-2.47l-2.41-2.41,0,0,0,0a1.22,1.22,0,0,1-.33-.55A2.11,2.11,0,0,1,550.93,57.24Z" transform="translate(-80.39 -35.49)"/><path class="cls-1" d="M633.08,80.55H589.21V74.33h-9.44v6.21H565.9c-4.81,0-9.67-.19-14.48,0a2.82,2.82,0,0,0-1.68.87l-4.23,3.42-9.83,7.94-.66.53a1.24,1.24,0,0,0,0,1.75l7.76,6.24c2.62,2.11,5.17,4.41,7.91,6.37,1,.69,2.72.37,3.85.37H618c4.95,0,9.92.16,14.87,0h.22a1.24,1.24,0,0,0,1.24-1.24v-25A1.26,1.26,0,0,0,633.08,80.55Zm-17.9,19.29A24.72,24.72,0,0,1,612.25,97l-2.67,2.67a2.16,2.16,0,0,1-3.38-2.59,11,11,0,0,1,1.8-1.89L609.25,94l-2.59-2.59a1,1,0,0,1-.48-.71,2,2,0,0,1,.39-2.42,2.12,2.12,0,0,1,2.83-.17,19.1,19.1,0,0,1,1.76,1.72l1.13,1.13,1.57-1.57a9,9,0,0,1,1.57-1.47,2.17,2.17,0,0,1,2.94,2.94,9.07,9.07,0,0,1-1.47,1.57L615.32,94,617,95.63a6.7,6.7,0,0,1,1.46,1.66A2.15,2.15,0,0,1,615.18,99.84Z" transform="translate(-80.39 -35.49)"/><path class="cls-2" d="M92.12,218.26q5.8,3.32,15.77,5.27a113.48,113.48,0,0,0,21.69,1.94,113.48,113.48,0,0,0,21.69-1.94q10-1.94,15.77-5.27t5.8-7.21v-7.21q0-3.89-5.8-7.21t-15.77-5.27a113.48,113.48,0,0,0-21.69-1.94,113.48,113.48,0,0,0-21.69,1.94q-10,1.94-15.77,5.27t-5.8,7.21v7.21Q86.31,214.94,92.12,218.26Z" transform="translate(-80.39 -35.49)"/><path class="cls-2" d="M92.12,239.9q5.8,3.32,15.77,5.27a113.48,113.48,0,0,0,21.69,1.94q3.62,0,7.08-.19a30.72,30.72,0,0,1,36-12.93,5.17,5.17,0,0,0,.17-1.31v-9.58q-6.7,4.73-18.31,7.16a122.07,122.07,0,0,1-25,2.42,122.07,122.07,0,0,1-25-2.42Q93,227.84,86.31,223.11v9.58Q86.31,236.57,92.12,239.9Z" transform="translate(-80.39 -35.49)"/><path class="cls-2" d="M134.88,275.85q-2.61.1-5.3.1a122.07,122.07,0,0,1-25-2.42Q93,271.11,86.31,266.38V276q0,3.89,5.8,7.21t15.77,5.27a113.48,113.48,0,0,0,21.69,1.94,119,119,0,0,0,17.14-1.17A30.82,30.82,0,0,1,134.88,275.85Z" transform="translate(-80.39 -35.49)"/><path class="cls-2" d="M92.12,261.53q5.8,3.32,15.77,5.27a113.48,113.48,0,0,0,21.69,1.94q1.53,0,3,0a30.85,30.85,0,0,1,.75-14.44q-1.87,0-3.78.05a122.07,122.07,0,0,1-25-2.42Q93,249.47,86.31,244.74v9.58Q86.31,258.21,92.12,261.53Z" transform="translate(-80.39 -35.49)"/><path class="cls-2" d="M163.38,235.35a27.79,27.79,0,1,0,27.79,27.79A27.82,27.82,0,0,0,163.38,235.35Zm24,27.79a24,24,0,1,1-24-24A24,24,0,0,1,187.37,263.14Z" transform="translate(-80.39 -35.49)"/><path class="cls-2" d="M151,260.78a8.55,8.55,0,0,1-2.55-1,1.63,1.63,0,0,1-.77-1.37,1.83,1.83,0,0,1,.71-1.49,3.16,3.16,0,0,1,2-.58,3.09,3.09,0,0,1,2.16.69,2.33,2.33,0,0,1,.76,1.81h2.32l0-.06a3.85,3.85,0,0,0-1.4-3.09,5.56,5.56,0,0,0-3.84-1.29,5.88,5.88,0,0,0-3.74,1.13,3.52,3.52,0,0,0-1.45,2.89,3.36,3.36,0,0,0,1.31,2.75,10,10,0,0,0,3.74,1.69,6.33,6.33,0,0,1,2.37,1,1.86,1.86,0,0,1,.67,1.48,1.71,1.71,0,0,1-.75,1.46,3.52,3.52,0,0,1-2.09.54,4,4,0,0,1-2.38-.65,2.26,2.26,0,0,1-.92-2h-2.33l0,.06a3.71,3.71,0,0,0,1.66,3.3,6.72,6.72,0,0,0,4,1.21,6.25,6.25,0,0,0,3.81-1.07,3.4,3.4,0,0,0,1.45-2.88,3.64,3.64,0,0,0-1.21-2.82A8.51,8.51,0,0,0,151,260.78Z" transform="translate(-80.39 -35.49)"/><path class="cls-2" d="M169.14,265.63a6.72,6.72,0,0,0,.46-2.5v-2.61a6.12,6.12,0,0,0-1.67-4.4,5.72,5.72,0,0,0-4.33-1.75,5.5,5.5,0,0,0-4.23,1.75,6.21,6.21,0,0,0-1.63,4.4v2.61a6.21,6.21,0,0,0,1.63,4.41,5.52,5.52,0,0,0,4.24,1.75,7.15,7.15,0,0,0,1.23-.1,5.52,5.52,0,0,0,1.13-.32l2.67,2.55,1.61-1.44-2.41-2.34A5.8,5.8,0,0,0,169.14,265.63Zm-2-2.5a4.57,4.57,0,0,1-1,3,3.22,3.22,0,0,1-2.62,1.16,3.05,3.05,0,0,1-2.53-1.17,4.69,4.69,0,0,1-.93-3V260.5a4.64,4.64,0,0,1,.93-3,3,3,0,0,1,2.52-1.16,3.24,3.24,0,0,1,2.62,1.16,4.49,4.49,0,0,1,1,3Z" transform="translate(-80.39 -35.49)"/><polygon class="cls-2" points="94.41 219.09 91.99 219.09 91.99 233.58 101.07 233.58 101.07 231.64 94.41 231.64 94.41 219.09"/><path class="cls-1" d="M763.77,239.9h-5.39V231.1a31.9,31.9,0,1,0-63.8-.32v9.1h-4.91a4.21,4.21,0,0,0-4.21,4.21v51a4,4,0,0,0,4,4H763a4.54,4.54,0,0,0,4.54-4.54v-51A3.72,3.72,0,0,0,763.77,239.9ZM731,270v9.6a1.3,1.3,0,0,1-1.3,1.3h-6.34a1.47,1.47,0,0,1-1.47-1.47V270a6.84,6.84,0,1,1,9.12,0Zm18.23-30.13H703.69v-9.1a22.79,22.79,0,1,1,45.57.27Z" transform="translate(-80.39 -35.49)"/><path class="cls-1" d="M548.62,410.17a9.07,9.07,0,0,1-2.73-.18c.06-.22.21-.64.27-.78a10,10,0,0,0,.82-3.75,7.36,7.36,0,1,0-14.71,0,10,10,0,0,0,.79,3.72c.06.16.21.57.27.79a8.57,8.57,0,0,1-2.66.19h-13l-.73,10.28c0,1.3,0,2.65,1.28,3.2a4,4,0,0,0,2.12,0,11.07,11.07,0,0,1,2.5-.25c4.25,0,7.88,4.86,7.88,8.83,0,4.14-3.37,8.78-7.88,8.78h0a12.36,12.36,0,0,1-2.5-.26,3.89,3.89,0,0,0-2.12,0c-1.25.54-1.25,1.92-1.25,3.29l.73,10.18h37.54c1.05,0,3.65-.13,5.12-1.36,1-1.06,1.54-2.89,1.47-5.24V410.17Zm-15.5,22c0-5.29-4.57-11.43-10.47-11.43a16.58,16.58,0,0,0-3,.27l-.26.05c0-.16,0-.36,0-.61l.54-7.78h10.64c2.35,0,3.52,0,4.51-.88,1.34-1.11.81-2.53.4-3.61l-.07-.17a6.77,6.77,0,0,1-.6-2.63,4.77,4.77,0,0,1,9.54,0,7.26,7.26,0,0,1-.67,2.85c-.39,1-.93,2.47.43,3.59,1,.79,2,.87,4.5.87h10.55v35c0,.64,0,2.59-.74,3.33-.36.36-1.41.74-3.27.74H520l-.6-7.81c0-.29,0-.52,0-.7h0l.27,0a14.51,14.51,0,0,0,2.95.26C528.65,443.49,533.13,437.5,533.13,432.13Z" transform="translate(-80.39 -35.49)"/><path class="cls-1" d="M473,394.22a9.86,9.86,0,0,0-1.89,3.14,7.41,7.41,0,0,0,4.49,9.33,7.7,7.7,0,0,0,2.46.41h0a7.35,7.35,0,0,0,6.87-4.9,9.9,9.9,0,0,0,.47-3.52v-.26c0-.36,0-.66,0-.83h0a8.39,8.39,0,0,1,2.55.73l12.31,4.35,4.07-9.49c.43-1.29.83-2.5-.15-3.39a3.86,3.86,0,0,0-2-.75,15.86,15.86,0,0,1-2.46-.61,7.29,7.29,0,0,1-4.27-4.47,9.53,9.53,0,0,1-.25-6.44,9.32,9.32,0,0,1,8.17-6h0a6.76,6.76,0,0,1,2.17.36,12.61,12.61,0,0,1,2.33,1,3.88,3.88,0,0,0,1.83.63H510c1.36-.08,1.77-1.2,2.29-2.65L515,361l-34.79-12.28h0a11.18,11.18,0,0,0-4-.92,5.38,5.38,0,0,0-1.87.37c-2.24,1.08-3.09,4.31-3.11,4.41L458.72,388l12.42,4.36a7,7,0,0,1,2.52,1.09c-.12.18-.39.5-.53.66Zm3-2c-.67-1.1-1.66-1.53-3.94-2.31l-10-3.51,11.59-33c.21-.76.92-2.46,1.77-2.86a1.44,1.44,0,0,1,.74-.14,9.71,9.71,0,0,1,3,.67l.21.07,32.55,11.45-2.1,7.48a6.36,6.36,0,0,1-.26.69l-.28-.15a18.3,18.3,0,0,0-2.68-1.24,9.24,9.24,0,0,0-3-.54,11.77,11.77,0,0,0-10.63,7.76,12.18,12.18,0,0,0,.26,8.22,10,10,0,0,0,5.82,6,15.08,15.08,0,0,0,2.88.72l.33.07c0,.14-.1.33-.19.58l-3.11,7.19-10-3.53c-2.33-.82-3.33-1.09-4.54-.63-1.53.61-1.52,2.06-1.52,3.11v.45a6.68,6.68,0,0,1-.35,2.58,4.78,4.78,0,0,1-4.47,3.16,5,5,0,0,1-1.57-.29,4.71,4.71,0,0,1-2.86-6,7.84,7.84,0,0,1,1.55-2.45C475.72,395.09,476.91,393.8,476,392.19Z" transform="translate(-80.39 -35.49)"/><path class="cls-1" d="M526.09,432.26a6.86,6.86,0,0,0-6.86-6.86h0a9.58,9.58,0,0,0-3.56.76,6,6,0,0,1-1.08.32c-.06,0-.13,0-.19-.13-.32-.38-.38-1-.38-3.11V410.66l-9.77-.69c-1.46,0-2.35.06-2.73,1a3.61,3.61,0,0,0,0,1.84,12.76,12.76,0,0,1,.26,2.6c0,4.64-5.14,8.38-9.33,8.38-4.38,0-9.28-3.62-9.28-8.38a12.76,12.76,0,0,1,.26-2.6,3,3,0,0,0,0-1.84c-.38-.89-1.33-1-2.79-1l-9.72.7v36.38c0,.38-.19,3.87,1.33,5.4,1.14,1.14,3.17,1.33,4.32,1.33.32,0,.51,0,.45.13h37V441.27c0-2.16.06-2.73.38-3.11.06-.13.13-.13.19-.13a3.21,3.21,0,0,1,1.08.32,9.58,9.58,0,0,0,3.56.76A6.86,6.86,0,0,0,526.09,432.26Z" transform="translate(-80.39 -35.49)"/><path class="cls-1" d="M506,385a6.86,6.86,0,0,0,6.86,6.86,9.58,9.58,0,0,0,3.56-.76,6,6,0,0,1,1.08-.32c.06,0,.13,0,.19.13.32.38.38,1,.38,3.11v12.58l9.78.7c1.46,0,2.35-.06,2.73-1a3.61,3.61,0,0,0,0-1.84,12.75,12.75,0,0,1-.25-2.6c0-4.64,5.14-8.38,9.33-8.38,4.38,0,9.28,3.62,9.28,8.38a12.75,12.75,0,0,1-.25,2.6,3,3,0,0,0,0,1.84c.38.89,1.27,1,2.73,1l9.9-.7V370.16c0-.38.19-3.87-1.34-5.4-1.14-1.14-3.17-1.33-4.32-1.33H518.09v12.51c0,2.16-.06,2.73-.38,3.11-.06.13-.13.13-.19.13a3.22,3.22,0,0,1-1.08-.32,9.58,9.58,0,0,0-3.56-.76A6.86,6.86,0,0,0,506,385Z" transform="translate(-80.39 -35.49)"/><path class="cls-1" d="M371.44,367.77l-.28-.28a51.63,51.63,0,1,0-73.3,72.74l.28.28a51.63,51.63,0,0,0,73.3-72.74Zm-5.88,67.14a43.72,43.72,0,1,1,0-61.29A43.72,43.72,0,0,1,365.56,434.91Z" transform="translate(-80.39 -35.49)"/><circle class="cls-1" cx="238.11" cy="352.36" r="6.46"/><circle class="cls-1" cx="270.41" cy="352.36" r="6.46"/><path class="cls-1" d="M368.08,407.19a2.26,2.26,0,0,0-1.6-.64,2.15,2.15,0,0,0-2.22,2.17c0,9-6.14,19.86-19.63,24a34.32,34.32,0,0,1-10,1.46c-8.88,0-17.2-3.34-22.83-9.16A23.52,23.52,0,0,1,305,408.72a2.21,2.21,0,0,0-4.42,0c.07,12.63,9.13,23.93,22.55,28.11a38.43,38.43,0,0,0,11.44,1.72h0c10.14,0,19.65-3.86,26.09-10.58a28.05,28.05,0,0,0,8-19.25A2.14,2.14,0,0,0,368.08,407.19Z" transform="translate(-80.39 -35.49)"/><path class="cls-1" d="M364,302.89,350.59,268a31.58,31.58,0,0,0,12.78-25.27c0-17.56-14.59-31.84-32.53-31.84s-32.53,14.28-32.53,31.84a31.58,31.58,0,0,0,12.86,25.34l-13.24,34.48a1.84,1.84,0,0,0,2.47,2.35l9.29-4.15,4.16,9.35a1.85,1.85,0,0,0,1,.94,1.81,1.81,0,0,0,2.34-1v0l13.6-35.44H331L344.54,310a1.8,1.8,0,0,0,1,1,1.83,1.83,0,0,0,2.41-.94l4.15-9.31,9.62,4.28a1.69,1.69,0,0,0,2.28-2.16Zm-33.14-35.26c-14,0-25.45-11.17-25.45-24.91s11.42-24.91,25.45-24.91,25.45,11.17,25.45,24.91S344.87,267.64,330.84,267.64Z" transform="translate(-80.39 -35.49)"/><path class="cls-1" d="M347.3,240H336.06l-4.74-12.65a.48.48,0,0,0-.29-.29.45.45,0,0,0-.56.29L325.73,240H314.33a.2.2,0,0,0-.17.1.21.21,0,0,0,.06.29l9.76,6.52-4.84,12.92a.26.26,0,0,0,0,.29.31.31,0,0,0,.42.08l11.3-7.44,11.2,7.36a.34.34,0,0,0,.5-.4l-4.8-12.8,9.66-6.44a.24.24,0,0,0,.12-.21A.25.25,0,0,0,347.3,240Z" transform="translate(-80.39 -35.49)"/><path class="cls-1" d="M315.39,80.92a.82.82,0,0,0,.32.65c1.39,1.06,6.89,5.36,9.14,8.61h0c5.52-6.26,8.12-8.12,9-8.65a.82.82,0,0,0,.41-.71V59.13a.82.82,0,0,1,.82-.82h6.92a.82.82,0,0,0,.63-1.35L324.86,35.49h0L307,57a.82.82,0,0,0,.63,1.35h6.92a.82.82,0,0,1,.82.82Z" transform="translate(-80.39 -35.49)"/><path class="cls-1" d="M377.65,79.59,351.08,71a.82.82,0,0,0-1,1.09l2.57,6.4a.82.82,0,0,1-.46,1.07c-5.28,2.1-35.93,16.32-35.93,63.47v.19a.82.82,0,0,0,.82.82h16.71a.82.82,0,0,0,.82-.81c.62-33.42,20.39-44.14,24.61-46.06a.82.82,0,0,1,1.1.44l2.57,6.41a.82.82,0,0,0,1.48.09l13.29-24.54S377.65,79.59,377.65,79.59Z" transform="translate(-80.39 -35.49)"/><path class="cls-1" d="M319.94,96.89l0-.1-.07-.13c-4.6-7.3-19.06-15.84-22.25-17.66a.82.82,0,0,1-.35-1l2.66-6.49a.82.82,0,0,0-1-1.09l-26.63,8.36s0,0,0,0l13.1,24.64a.82.82,0,0,0,1.48-.07L289.42,97a.82.82,0,0,1,1.19-.39c3.2,2,14.82,9.64,19.34,19.69a.82.82,0,0,0,1.52-.09c1.38-4.25,4.68-13.57,8.38-18.58l0-.08h0A.82.82,0,0,0,319.94,96.89Z" transform="translate(-80.39 -35.49)"/><path class="cls-1" d="M560.63,241.69l-.19-.18a5.61,5.61,0,0,0,.32-.75c3.13-9.31,1-18.25-.13-20.53l0-.07-.07-.16a43,43,0,0,0-9.91-12.37,40.09,40.09,0,0,0-27.22-10.49c-11.45.1-21.47,3.6-29,10.12a35.71,35.71,0,0,0-12,21.41C479.24,249,492,265.58,496.79,271.8c.41.54.87,1.12,1.15,1.52-.87,2.78-5.19,13.51-9.15,23h0a2.89,2.89,0,0,0,.12,2.57,4.34,4.34,0,0,0,3.34,1.92,5.75,5.75,0,0,0,.9.07H532a3.09,3.09,0,0,0,2.87-1.84,20.23,20.23,0,0,0,1.1-3.2c.31-1,.69-2.35,1.23-4,1-3.25,1.73-3.32,7.6-3,1.7.09,3.62.19,5.93.19,8.43,0,8.61-6.29,8.71-10,0-1.61.09-3.44.7-4,2.55-2.44,2.17-4.72,1.71-6a3.65,3.65,0,0,0,.89-1.25,7.48,7.48,0,0,0,.11-4.49l.35-.2c2.07-1.16,5.2-2.91,6.67-5.85C571.69,253.45,567.49,248.3,560.63,241.69Zm5.49,13.59c-.91,1.78-3.35,3.14-5,4-.59.33-1.11.62-1.5.9a2.42,2.42,0,0,0-1.1,3.1,6.5,6.5,0,0,1,.41,2.47,2.68,2.68,0,0,0-1.39,1.34,3.22,3.22,0,0,0,.18,2.71c.35.85.48,1.16-.49,2.1-1.83,1.76-1.91,4.37-2,6.9-.12,4.27-.33,6-4.55,6-2.2,0-4.06-.1-5.71-.19-5.85-.31-9.72-.51-11.78,5.89-.55,1.71-.94,3-1.26,4.11-.24.8-.47,1.58-.64,2.06H493.13c.82-2,2.53-6.12,4.23-10.32,4.87-12.06,4.87-12.79,4.87-13.38,0-1-.5-1.63-2.15-3.76-4.5-5.84-16.46-21.34-13.6-39.94a31.54,31.54,0,0,1,10.66-18.9c6.75-5.86,15.85-9,26.29-9.1a35.51,35.51,0,0,1,24.43,9.44,39.87,39.87,0,0,1,8.84,10.89l0,.06a4.34,4.34,0,0,0,.18.4c.73,1.43,2.58,9.38-.1,17.33a1.63,1.63,0,0,1-.15.32c-1,1.58-.76,2.48-.65,2.83.17.6.45.87,1.73,2.1a74.57,74.57,0,0,1,5.62,5.87C566.13,253.9,566.14,255.14,566.12,255.28Z" transform="translate(-80.39 -35.49)"/><path class="cls-1" d="M519.16,229.89a1.84,1.84,0,0,1,1-1.25,26.69,26.69,0,0,0,3.81-2l-.55-3.24a25.46,25.46,0,0,0-4.23-.52,1.84,1.84,0,0,1-1.41-.85l0,0a1.84,1.84,0,0,1-.19-1.61,27,27,0,0,0,1.28-4.12h0l-2.69-1.89L512.85,217a1.84,1.84,0,0,1-2.81-.67,27.12,27.12,0,0,0-2-3.8h0l-3.24.55h0a25.86,25.86,0,0,0-.54,4.24,1.86,1.86,0,0,1-2.44,1.61l-4.17-1.36h0l-1.87,2.72h0l2.65,3.37a1.87,1.87,0,0,1-.66,2.83,26.72,26.72,0,0,0-3.81,2.05l.55,3.24a25.5,25.5,0,0,0,4.23.52,1.86,1.86,0,0,1,1.6,2.46A27.89,27.89,0,0,0,499,239h0l2.73,1.89a25.5,25.5,0,0,0,3.37-2.62,1.84,1.84,0,0,1,2.86.62,27.39,27.39,0,0,0,2,3.81h0l3.24-.55a26.53,26.53,0,0,0,.52-4.23,1.84,1.84,0,0,1,2.45-1.59,26.76,26.76,0,0,0,4.12,1.28h0l1.91-2.7a25.89,25.89,0,0,0-2.62-3.37A1.84,1.84,0,0,1,519.16,229.89Zm-4.3,1.89,0,0a7.24,7.24,0,1,1-1.74-10.08h0v0A7.24,7.24,0,0,1,514.86,231.78Z" transform="translate(-80.39 -35.49)"/><path class="cls-1" d="M542.29,232.81l0,.13a1.36,1.36,0,0,1,.34-1.13,19.89,19.89,0,0,0,2-2.45h0l-1.3-2.06h0l-3,.88a1.45,1.45,0,0,1-1.78-1.21,20,20,0,0,0-.29-3.18l-2.36-.54h0a19,19,0,0,0-1.56,2.72,1.34,1.34,0,0,1-1,.65,1.36,1.36,0,0,1-1.11-.3l-2.41-2h0l-2.06,1.3.89,3a1.45,1.45,0,0,1-1.21,1.78,19.69,19.69,0,0,0-3.16.31l-.54,2.36h0a18.78,18.78,0,0,0,2.69,1.55,1.49,1.49,0,0,1,.32,2.18,20.54,20.54,0,0,0-2,2.44l1.3,2.06h0a18.78,18.78,0,0,0,3-.84,1.36,1.36,0,0,1,1.76,1.22,20.17,20.17,0,0,0,.29,3.18l2.35.51a19.5,19.5,0,0,0,1.65-2.83,1.34,1.34,0,0,1,1-.65,1.36,1.36,0,0,1,1.15.35,19.71,19.71,0,0,0,2.36,2l2.06-1.3a19.07,19.07,0,0,0-.84-3,1.46,1.46,0,0,1,1.2-1.83,19.67,19.67,0,0,0,3.16-.31h0l.54-2.36a18.74,18.74,0,0,0-2.72-1.56A1.36,1.36,0,0,1,542.29,232.81Zm-5.23,5.29a4.61,4.61,0,1,1,1.36-6.39l.07.11A4.61,4.61,0,0,1,537.06,238.1Z" transform="translate(-80.39 -35.49)"/><path class="cls-1" d="M522.86,216.2a.93.93,0,0,1-.22.79,14,14,0,0,0-1.4,1.67l.89,1.41a12.85,12.85,0,0,0,2.07-.57.93.93,0,0,1,1.21.83,13.79,13.79,0,0,0,.2,2.17l1.61.35a13.33,13.33,0,0,0,1.13-1.94.92.92,0,0,1,.7-.44.93.93,0,0,1,.79.24,13.48,13.48,0,0,0,1.61,1.37l1.41-.89h0a13,13,0,0,0-.57-2.07,1,1,0,0,1,.82-1.25,13.45,13.45,0,0,0,2.16-.21l.37-1.61a12.81,12.81,0,0,0-1.86-1.07.93.93,0,0,1-.44-.7l0,.09a.93.93,0,0,1,.23-.78,13.6,13.6,0,0,0,1.38-1.67h0l-.89-1.41-2.08.6a1,1,0,0,1-1.22-.82,13.66,13.66,0,0,0-.2-2.17h0l-1.61-.37h0a13,13,0,0,0-1.07,1.86.92.92,0,0,1-.7.44.93.93,0,0,1-.76-.2l-1.65-1.4-1.41.89.61,2.07a1,1,0,0,1-.82,1.22,13.47,13.47,0,0,0-2.16.21h0l-.37,1.61a12.85,12.85,0,0,0,1.84,1.06A.93.93,0,0,1,522.86,216.2Zm3.29-3.5a3.16,3.16,0,0,1,4.53.81l0,.08a3.16,3.16,0,1,1-4.58-.89Z" transform="translate(-80.39 -35.49)"/></svg>